<?xml version="1.0" encoding="UTF-8" standalone="no"?>
<!-- Created with Inkscape (http://www.inkscape.org/) -->

<svg
   xmlns:dc="http://purl.org/dc/elements/1.1/"
   xmlns:cc="http://creativecommons.org/ns#"
   xmlns:rdf="http://www.w3.org/1999/02/22-rdf-syntax-ns#"
   xmlns:svg="http://www.w3.org/2000/svg"
   xmlns="http://www.w3.org/2000/svg"
   xmlns:sodipodi="http://sodipodi.sourceforge.net/DTD/sodipodi-0.dtd"
   xmlns:inkscape="http://www.inkscape.org/namespaces/inkscape"
   width="200mm"
   height="200mm"
   viewBox="0 0 200 200"
   version="1.1"
   id="svg871"
   inkscape:version="0.92.2 (5c3e80d, 2017-08-06)"
   sodipodi:docname="favicon_rssbridge.svg">
  <defs
     id="defs865" />
  <sodipodi:namedview
     id="base"
     pagecolor="#ffffff"
     bordercolor="#666666"
     borderopacity="1.0"
     inkscape:pageopacity="0.0"
     inkscape:pageshadow="2"
     inkscape:zoom="0.35"
     inkscape:cx="495.71429"
     inkscape:cy="542.85714"
     inkscape:document-units="mm"
     inkscape:current-layer="layer1"
     showgrid="false"
     inkscape:window-width="1366"
     inkscape:window-height="705"
     inkscape:window-x="-8"
     inkscape:window-y="-8"
     inkscape:window-maximized="1" />
  <metadata
     id="metadata868">
    <rdf:RDF>
      <cc:Work
         rdf:about="">
        <dc:format>image/svg+xml</dc:format>
        <dc:type
           rdf:resource="http://purl.org/dc/dcmitype/StillImage" />
        <dc:title></dc:title>
      </cc:Work>
    </rdf:RDF>
  </metadata>
  <g
     inkscape:label="Calque 1"
     inkscape:groupmode="layer"
     id="layer1"
     transform="translate(0,-97)">
    <g
       id="g2147"
       transform="matrix(1.7746042,0,0,1.7746042,3145.263,-3080.4079)"
       inkscape:export-xdpi="61.620663"
       inkscape:export-ydpi="61.620663">
      <rect
         inkscape:export-ydpi="68"
         inkscape:export-xdpi="68"
         ry="17.993027"
         rx="17.993027"
         y="1803.3181"
         x="-1759.36"
         height="86.856956"
         width="86.856956"
         id="rect2098"
         style="opacity:1;vector-effect:none;fill:#ff6600;fill-opacity:1;stroke:none;stroke-width:2;stroke-linecap:butt;stroke-linejoin:miter;stroke-miterlimit:4;stroke-dasharray:4.00000008, 8.00000016;stroke-dashoffset:0;stroke-opacity:1" />
      <flowRoot
         inkscape:export-filename="C:\Users\Gyrev\Dropbox\4 - Obs\01 - Com - media\03 - infographies\logo_glasses.png"
         transform="matrix(0.5968306,0,0,0.5968306,-1834.59,1688.6939)"
         style="font-style:normal;font-variant:normal;font-weight:bold;font-stretch:normal;font-size:40px;line-height:1.25;font-family:sans-serif;-inkscape-font-specification:'sans-serif Bold';letter-spacing:0px;word-spacing:0px;fill:#ffffff;fill-opacity:1;stroke:none;stroke-width:2.61466217"
         id="flowRoot2106"
         xml:space="preserve"
         inkscape:export-xdpi="68.183243"
         inkscape:export-ydpi="68.183243"><flowRegion
           id="flowRegion2102"
           style="fill:#ffffff;fill-opacity:1;stroke-width:2.61466217"><rect
             y="275.93942"
             x="140.55341"
             height="65.626038"
             width="253.20284"
             id="rect2100"
             style="fill:#ffffff;fill-opacity:1;stroke-width:2.61466217" /></flowRegion><flowPara
           style="font-style:normal;font-variant:normal;font-weight:600;font-stretch:normal;font-family:'Exo 2';-inkscape-font-specification:'Exo 2 Semi-Bold';letter-spacing:-1px;fill:#ffffff;fill-opacity:1;stroke-width:2.61466217"
           id="flowPara2104">Bridge</flowPara></flowRoot>      <g
         style="stroke-width:2.99397564"
         inkscape:export-ydpi="68"
         inkscape:export-xdpi="68"
         id="g2118"
         transform="matrix(0.33400405,0,0,0.33400405,-1609.4253,1569.2886)">
        <flowRoot
           inkscape:export-filename="C:\Users\Gyrev\Dropbox\4 - Obs\01 - Com - media\03 - infographies\logo_glasses.png"
           transform="matrix(1.7868963,0,0,1.7868963,-620.90965,302.19806)"
           style="font-style:normal;font-variant:normal;font-weight:bold;font-stretch:normal;font-size:40px;line-height:1.25;font-family:sans-serif;-inkscape-font-specification:'sans-serif Bold';letter-spacing:0px;word-spacing:0px;fill:#ffffff;fill-opacity:1;stroke:none;stroke-width:2.61466217"
           id="flowRoot2116"
           xml:space="preserve"
           inkscape:export-xdpi="68.183243"
           inkscape:export-ydpi="68.183243"><flowRegion
             id="flowRegion2112"
             style="fill:#ffffff;fill-opacity:1;stroke-width:2.61466217"><rect
               y="275.93942"
               x="140.55341"
               height="65.626038"
               width="253.20284"
               id="rect2110"
               style="fill:#ffffff;fill-opacity:1;stroke-width:2.61466217" /></flowRegion><flowPara
             style="font-style:normal;font-variant:normal;font-weight:600;font-stretch:normal;font-family:'Exo 2';-inkscape-font-specification:'Exo 2 Semi-Bold';letter-spacing:-1px;fill:#ffffff;fill-opacity:1;stroke-width:2.61466217"
             id="flowPara2114">rss</flowPara></flowRoot>      </g>
      <path
         inkscape:export-ydpi="68"
         inkscape:export-xdpi="68"
         inkscape:connector-curvature="0"
         id="path2120"
         d="m -1719.2669,1838.3599 c -5.0205,-1.3144 -8.8786,-5.3846 -10.0117,-10.5624 -0.335,-1.5309 -0.2541,-4.567 0.1641,-6.161 1.284,-4.8933 4.9001,-8.573 9.7609,-9.9326 1.5509,-0.4338 4.2673,-0.512 6.1345,-0.1767 4.1633,0.7477 8.2284,4.1132 9.8663,8.1681 0.7975,1.9744 0.9807,2.9793 0.9762,5.3548 0,1.8242 -0.075,2.499 -0.3818,3.58 -1.3733,4.8468 -5.1589,8.5581 -9.9346,9.7395 -1.8168,0.4494 -4.837,0.445 -6.5739,-0.01 z m 2.2445,-7.5051 c -0.2717,-0.1738 -3.5329,-0.3553 -3.6195,-0.2014 -0.1223,0.2172 1.1312,3.2066 1.6601,3.9591 0.2581,0.3672 0.8046,0.9237 1.2144,1.2364 l 0.745,0.5688 0.083,-2.7282 c 0.053,-1.7295 0.022,-2.7672 -0.083,-2.8347 z m 3.4669,4.5392 c 0.6573,-0.6108 1.0277,-1.2558 1.7728,-3.087 0.3973,-0.9763 0.5822,-1.631 0.4789,-1.6949 -0.1723,-0.1065 -2.753,0.054 -3.429,0.2138 -0.3689,0.087 -0.3747,0.1285 -0.3747,2.7067 0,1.4401 0.05,2.6687 0.1116,2.73 0.1328,0.1328 0.7879,-0.2623 1.4404,-0.8686 z m -7.1654,-0.2901 c 0.057,-0.057 -0.07,-0.4503 -0.2823,-0.8742 -0.5012,-1.0013 -0.9314,-2.3267 -1.0704,-3.2976 l -0.1107,-0.7741 -1.0768,-0.2197 c -0.5923,-0.1208 -1.5232,-0.3704 -2.0688,-0.5546 -0.5455,-0.1842 -1.0215,-0.3053 -1.0578,-0.269 -0.1007,0.1007 0.5958,1.4049 1.2973,2.4294 0.7668,1.1198 1.9378,2.2559 3.1536,3.0595 0.9557,0.6316 1.047,0.6692 1.2159,0.5003 z m 11.6482,-1.1869 c 0.4342,-0.3121 1.1176,-0.9425 1.5185,-1.4009 0.7228,-0.8263 2.2126,-3.2507 2.0793,-3.3839 -0.081,-0.081 -3.4631,0.9745 -3.9405,1.23 -0.1894,0.1013 -0.3734,0.436 -0.4412,0.8027 -0.064,0.346 -0.4063,1.3351 -0.7607,2.1982 -0.3543,0.863 -0.6045,1.6335 -0.5558,1.7122 0.096,0.1552 0.8564,-0.2642 2.1004,-1.1583 z m -7.7321,-7.5308 c 0.028,-1.5854 -0.012,-2.9457 -0.089,-3.0227 -0.077,-0.077 -1.1425,-0.1909 -2.3677,-0.2529 l -2.2276,-0.1128 0.1048,2.6632 c 0.058,1.4647 0.1506,2.7824 0.2066,2.9281 0.068,0.1771 0.4702,0.3241 1.2128,0.4429 1.0818,0.1732 2.6072,0.3083 2.9427,0.2606 0.1015,-0.014 0.1865,-1.1506 0.2176,-2.9064 z m 4.7233,2.6386 c 0.6339,-0.097 1.1476,-0.2656 1.1959,-0.3916 0.047,-0.1215 0.1731,-0.9804 0.281,-1.9087 0.1853,-1.5935 0.1233,-3.2044 -0.1388,-3.6068 -0.084,-0.1292 -0.7256,-0.1333 -2.241,-0.014 l -2.1231,0.1669 v 2.9435 c 0,1.6188 0.039,2.9822 0.086,3.0297 0.1077,0.1077 1.4775,0.01 2.9397,-0.2189 z m -10.6043,-0.8169 c -0.1446,-0.4559 -0.1658,-4.6514 -0.026,-5.08 0.1024,-0.3129 -0.039,-0.3779 -1.7622,-0.8077 -1.0305,-0.2571 -1.9525,-0.4987 -2.0489,-0.5369 -0.2228,-0.088 -0.7405,2.5619 -0.7405,3.7909 0,1.3374 0.5346,1.8093 2.914,2.572 1.5268,0.4894 1.8022,0.4996 1.6632,0.062 z m 15.5636,-0.1064 c 1.2002,-0.3876 2.3124,-1.419 2.5141,-2.3313 0.1656,-0.7493 0.01,-1.8941 -0.4444,-3.2707 -0.2107,-0.6382 -0.3209,-0.7776 -0.5391,-0.6817 -0.1509,0.066 -1.0236,0.3247 -1.9395,0.5742 -1.1985,0.3265 -1.6453,0.5175 -1.5943,0.6816 0.1128,0.3635 0.051,4.4177 -0.076,4.9964 l -0.1154,0.5253 0.6589,-0.1053 c 0.3623,-0.058 1.0533,-0.2328 1.5355,-0.3885 z m -9.7252,-6.5935 c 0.045,-0.1165 0.061,-1.9335 0.036,-4.038 l -0.045,-3.8262 -1.1336,1.0763 c -0.8596,0.8162 -1.2919,1.3997 -1.7889,2.4145 -0.6761,1.3806 -1.4646,4.0002 -1.2644,4.2005 0.3609,0.3609 4.0646,0.5135 4.1953,0.1729 z m 5.1134,0.062 c 0.4359,-0.072 0.84,-0.1778 0.8978,-0.2357 0.1638,-0.1638 -0.9127,-3.4126 -1.4982,-4.5217 -0.5028,-0.9524 -2.3179,-3.085 -2.6256,-3.085 -0.1694,0 -0.205,7.7131 -0.036,7.8817 0.1489,0.1489 2.2742,0.1233 3.2624,-0.039 z m -10.6939,-1.057 c 0.4232,-1.6148 0.7365,-2.617 1.2494,-3.9963 0.2979,-0.8014 0.5037,-1.457 0.4573,-1.457 -0.3843,0 -2.3317,1.2786 -3.2089,2.1068 -1.2568,1.1867 -2.3208,2.8017 -2.0344,3.0881 0.1665,0.1666 2.6682,0.9242 3.1493,0.9537 0.111,0.01 0.2852,-0.306 0.3873,-0.6953 z m 14.5638,0.4564 c 1.3057,-0.275 2.0815,-0.556 2.0815,-0.754 0,-0.3409 -1.7648,-2.7156 -2.5545,-3.4374 -0.7298,-0.667 -2.662,-1.8848 -2.9904,-1.8848 -0.048,0 0.095,0.3754 0.3159,0.8343 0.4315,0.8944 1.071,2.9784 1.392,4.5358 0.1085,0.5266 0.2856,0.9561 0.3936,0.9545 0.108,0 0.7209,-0.1133 1.3619,-0.2484 z"
         style="opacity:1;vector-effect:none;fill:#ffffff;fill-opacity:1;stroke:none;stroke-width:2.00000024;stroke-linecap:butt;stroke-linejoin:miter;stroke-miterlimit:4;stroke-dasharray:4.00000004, 8.0000001;stroke-dashoffset:0;stroke-opacity:1" />
    </g>
  </g>
</svg>
