<?xml version="1.0" encoding="UTF-8" standalone="no"?>
<!-- Created with Inkscape (http://www.inkscape.org/) -->

<svg
   xmlns:dc="http://purl.org/dc/elements/1.1/"
   xmlns:cc="http://creativecommons.org/ns#"
   xmlns:rdf="http://www.w3.org/1999/02/22-rdf-syntax-ns#"
   xmlns:svg="http://www.w3.org/2000/svg"
   xmlns="http://www.w3.org/2000/svg"
   xmlns:sodipodi="http://sodipodi.sourceforge.net/DTD/sodipodi-0.dtd"
   xmlns:inkscape="http://www.inkscape.org/namespaces/inkscape"
   width="300mm"
   height="100mm"
   viewBox="0 0 300 100"
   version="1.1"
   id="svg1551"
   inkscape:version="0.92.2 (5c3e80d, 2017-08-06)"
   sodipodi:docname="logo_rssbridge.svg">
  <defs
     id="defs1545" />
  <sodipodi:namedview
     id="base"
     pagecolor="#ffffff"
     bordercolor="#666666"
     borderopacity="1.0"
     inkscape:pageopacity="0.0"
     inkscape:pageshadow="2"
     inkscape:zoom="0.35"
     inkscape:cx="517.88898"
     inkscape:cy="397.65625"
     inkscape:document-units="mm"
     inkscape:current-layer="g1492"
     showgrid="false"
     inkscape:window-width="1366"
     inkscape:window-height="705"
     inkscape:window-x="-8"
     inkscape:window-y="-8"
     inkscape:window-maximized="1" />
  <metadata
     id="metadata1548">
    <rdf:RDF>
      <cc:Work
         rdf:about="">
        <dc:format>image/svg+xml</dc:format>
        <dc:type
           rdf:resource="http://purl.org/dc/dcmitype/StillImage" />
        <dc:title></dc:title>
      </cc:Work>
    </rdf:RDF>
  </metadata>
  <g
     inkscape:label="Calque 1"
     inkscape:groupmode="layer"
     id="layer1"
     transform="translate(0,-197)">
    <g
       style="fill:#1182db;fill-opacity:1"
       id="g1492"
       transform="matrix(1.063066,0,0,1.063066,31.239097,-1662.8034)"
       inkscape:export-xdpi="84.084839"
       inkscape:export-ydpi="84.084839">
      <flowRoot
         inkscape:export-ydpi="68.183243"
         inkscape:export-xdpi="68.183243"
         xml:space="preserve"
         id="flowRoot1458"
         style="font-style:normal;font-variant:normal;font-weight:bold;font-stretch:normal;font-size:40px;line-height:1.25;font-family:sans-serif;-inkscape-font-specification:'sans-serif Bold';letter-spacing:0px;word-spacing:0px;fill:#1182db;fill-opacity:1;stroke:none;stroke-width:5.40849686"
         transform="matrix(0.2885294,0,0,0.2885294,11.385677,1734.3629)"
         inkscape:export-filename="C:\Users\Gyrev\Dropbox\4 - Obs\01 - Com - media\03 - infographies\logo_glasses.png"><flowRegion
           style="fill:#1182db;fill-opacity:1;stroke-width:5.40849686"
           id="flowRegion1454"><rect
             style="fill:#1182db;fill-opacity:1;stroke-width:5.40849686"
             id="rect1452"
             width="555.50842"
             height="60.796875"
             x="140.55341"
             y="275.93942" /></flowRegion><flowPara
           id="flowPara1456"
           style="font-style:normal;font-variant:normal;font-weight:600;font-stretch:normal;font-family:'Exo 2';-inkscape-font-specification:'Exo 2 Semi-Bold';letter-spacing:3.48859px;fill:#1182db;fill-opacity:1;stroke-width:5.40849686">reconnecting the web</flowPara></flowRoot>      <g
         id="g1468"
         style="fill:#1182db;fill-opacity:1;stroke-width:1.69267535"
         transform="matrix(0.59078074,0,0,0.59078074,36.380377,1356.4656)">
        <flowRoot
           inkscape:export-ydpi="68.183243"
           inkscape:export-xdpi="68.183243"
           xml:space="preserve"
           id="flowRoot1466"
           style="font-style:normal;font-variant:normal;font-weight:bold;font-stretch:normal;font-size:40px;line-height:1.25;font-family:sans-serif;-inkscape-font-specification:'sans-serif Bold';letter-spacing:0px;word-spacing:0px;fill:#1182db;fill-opacity:1;stroke:none;stroke-width:1.47822654"
           transform="matrix(1.7868963,0,0,1.7868963,-131.08627,186.65131)"
           inkscape:export-filename="C:\Users\Gyrev\Dropbox\4 - Obs\01 - Com - media\03 - infographies\logo_glasses.png"><flowRegion
             style="fill:#1182db;fill-opacity:1;stroke-width:1.47822654"
             id="flowRegion1462"><rect
               style="fill:#1182db;fill-opacity:1;stroke-width:1.47822654"
               id="rect1460"
               width="253.20284"
               height="65.626038"
               x="140.55341"
               y="275.93942" /></flowRegion><flowPara
             id="flowPara1464"
             style="font-style:normal;font-variant:normal;font-weight:600;font-stretch:normal;font-family:'Exo 2';-inkscape-font-specification:'Exo 2 Semi-Bold';letter-spacing:-2.1810503px;fill:#1182db;fill-opacity:1;stroke-width:1.47822654">Bridge</flowPara></flowRoot>      </g>
      <g
         transform="matrix(0.59078074,0,0,0.59078074,66.923727,1356.4656)"
         style="fill:#1182db;fill-opacity:1;stroke-width:1.69267535"
         id="g1478">
        <flowRoot
           inkscape:export-filename="C:\Users\Gyrev\Dropbox\4 - Obs\01 - Com - media\03 - infographies\logo_glasses.png"
           transform="matrix(1.7868963,0,0,1.7868963,-294.87276,186.65131)"
           style="font-style:normal;font-variant:normal;font-weight:bold;font-stretch:normal;font-size:40px;line-height:1.25;font-family:sans-serif;-inkscape-font-specification:'sans-serif Bold';letter-spacing:0px;word-spacing:0px;fill:#1182db;fill-opacity:1;stroke:none;stroke-width:1.47822654"
           id="flowRoot1476"
           xml:space="preserve"
           inkscape:export-xdpi="68.183243"
           inkscape:export-ydpi="68.183243"><flowRegion
             id="flowRegion1472"
             style="fill:#1182db;fill-opacity:1;stroke-width:1.47822654"><rect
               y="275.93942"
               x="140.55341"
               height="65.626038"
               width="253.20284"
               id="rect1470"
               style="fill:#1182db;fill-opacity:1;stroke-width:1.47822654" /></flowRegion><flowPara
             style="font-style:normal;font-variant:normal;font-weight:600;font-stretch:normal;font-family:'Exo 2';-inkscape-font-specification:'Exo 2 Semi-Bold';letter-spacing:-2.1810503px;fill:#1182db;fill-opacity:1;stroke-width:1.47822654"
             id="flowPara1474">rss</flowPara></flowRoot>      </g>
      <rect
         ry="7.3332076"
         rx="7.3332076"
         y="1763.6888"
         x="3.8301878"
         height="41.961315"
         width="99.644852"
         id="rect1480"
         style="opacity:1;vector-effect:none;fill:none;fill-opacity:1;stroke:#1182db;stroke-width:3;stroke-linecap:butt;stroke-linejoin:miter;stroke-miterlimit:4;stroke-dasharray:none;stroke-dashoffset:0;stroke-opacity:1" />
      <g
         id="g1490"
         transform="matrix(0.42065629,0,0,0.42065629,481.55091,842.16455)"
         style="fill:#1182db;fill-opacity:1;stroke-width:2.3772378">
        <g
           style="fill:#1182db;fill-opacity:1;stroke-width:3.88193178"
           transform="matrix(0.61238525,0,0,0.61238525,-1199.6119,2184.4357)"
           id="g1488">
          <path
             style="opacity:1;vector-effect:none;fill:#1182db;fill-opacity:1;stroke:none;stroke-width:29.34373856;stroke-linecap:butt;stroke-linejoin:miter;stroke-miterlimit:4;stroke-dasharray:58.68747418, 117.37494829;stroke-dashoffset:0;stroke-opacity:1"
             d="m 541.51249,525.34565 c -10.41315,-4.00956 -14.78996,-6.8636 -21.21485,-13.83378 -9.51065,-10.31784 -12.16446,-17.61997 -12.22497,-33.63782 -0.0451,-11.93786 0.4192,-14.53892 3.85734,-21.60913 4.60063,-9.46079 15.51168,-20.18661 24.98644,-24.56227 5.4253,-2.50553 9.38434,-3.11239 20.31033,-3.11325 11.66691,-9.2e-4 14.67404,0.52181 21.42857,3.7249 9.99443,4.73949 19.32279,14.0885 24.07789,24.13117 5.25545,11.09941 5.95363,27.48145 1.65888,38.9238 -4.02442,10.72212 -14.87839,22.6043 -25.31059,27.7083 -10.28725,5.03309 -27.6637,6.08212 -37.56904,2.26808 z"
             id="path1482"
             inkscape:connector-curvature="0"
             transform="scale(0.26458333)" />
          <path
             style="opacity:1;vector-effect:none;fill:#1182db;fill-opacity:1;stroke:none;stroke-width:29.34373856;stroke-linecap:butt;stroke-linejoin:miter;stroke-miterlimit:4;stroke-dasharray:58.68747418, 117.37494829;stroke-dashoffset:0;stroke-opacity:1"
             d="m 683.89345,526.92166 c -0.52382,-0.5238 -0.96246,-2.93451 -0.97477,-5.35714 -0.0352,-6.92667 -5.18979,-29.62173 -10.01089,-44.07679 C 648.75042,405.05698 592.21848,359.91722 516.2625,352.40923 l -9.75001,-0.96376 0.31432,-35.60003 c 0.17288,-19.58002 0.82532,-36.11103 1.44987,-36.73558 1.81708,-1.81708 35.29533,1.40642 53.50247,5.15156 47.00787,9.66933 86.72265,29.83563 117.9638,59.89942 22.60831,21.7563 38.25173,44.31995 51.33931,74.05042 11.72719,26.64016 21.65262,66.64856 24.10447,97.16279 l 1.00439,12.5 h -35.67264 c -19.61996,0 -36.10123,-0.42858 -36.62503,-0.95239 z"
             id="path1484"
             inkscape:connector-curvature="0"
             transform="scale(0.26458333)" />
          <path
             style="opacity:1;vector-effect:none;fill:#1182db;fill-opacity:1;stroke:none;stroke-width:29.34373856;stroke-linecap:butt;stroke-linejoin:miter;stroke-miterlimit:4;stroke-dasharray:58.68747418, 117.37494829;stroke-dashoffset:0;stroke-opacity:1"
             d="m 823.42333,526.81959 -8.80344,-0.50396 -0.79067,-6.72078 c -0.43486,-3.69645 -1.19383,-10.89938 -1.68659,-16.00652 -4.34718,-45.05596 -23.32007,-100.71198 -47.77185,-140.13638 -22.38739,-36.09589 -54.4142,-68.56278 -89.46856,-90.69793 -41.25297,-26.04928 -95.0629,-43.89344 -148.38973,-49.20819 -9.42857,-0.93969 -17.94643,-1.93722 -18.92857,-2.21675 -1.37004,-0.38992 -1.78572,-9.19669 -1.78572,-37.83338 v -37.32517 l 15.35715,0.93347 c 45.68823,2.77713 80.32407,8.98439 117.5,21.05774 91.16555,29.60718 160.46184,87.77122 202.6182,170.06818 24.63558,48.09321 41.9844,114.7859 45.52317,175.00127 l 0.86054,14.64286 -27.71524,-0.27526 c -15.24339,-0.15139 -31.6768,-0.50203 -36.51869,-0.7792 z"
             id="path1486"
             inkscape:connector-curvature="0"
             transform="scale(0.26458333)" />
        </g>
      </g>
    </g>
  </g>
</svg>
